# This file uses centimeters as units for non-parametric coordinates.

mtllib HeartOBJ.mtl
g default
v 0.000000 0.676558 0.375224
v 0.000000 1.083720 0.613460
v 0.000000 1.691475 0.822883
v 0.000000 2.208312 0.892430
v 0.000000 2.710512 0.811442
v 0.000000 3.129798 0.506282
v 0.000000 3.298223 0.000000
v 0.000000 0.035396 -0.000000
v 0.000000 0.676558 -0.375224
v 0.000000 1.083720 -0.613460
v 0.000000 1.691475 -0.822883
v 0.000000 2.208312 -0.892430
v 0.000000 2.710512 -0.811442
v 0.000000 3.129798 -0.506282
v 0.215849 1.225014 0.671261
v 0.176594 0.760201 0.402085
v 0.572507 1.027478 0.462305
v 0.699771 1.541787 0.729693
v 1.667488 1.896176 0.503525
v 1.384681 1.535558 0.494933
v 0.264756 1.793730 0.857101
v 0.858325 2.022981 0.858083
v 1.802639 2.238549 0.522150
v 0.289870 2.303275 0.881836
v 0.939743 2.516176 0.858083
v 1.819648 2.568756 0.536603
v 0.294197 2.809092 0.782351
v 0.984583 3.030102 0.781461
v 1.712271 3.052015 0.523090
v 0.273939 3.300518 0.493307
v 0.888097 3.683261 0.464217
v 1.445867 3.459577 0.484395
v 0.236873 3.514691 0.000000
v 0.767928 4.000000 0.000000
v 1.810702 3.790411 -0.000000
v 0.165289 0.201420 -0.000000
v 0.535856 0.573637 -0.000000
v 1.751402 1.422366 -0.000000
v 2.131123 1.850009 -0.000000
v 2.311164 2.256012 -0.000000
v 2.376676 2.647589 -0.000000
v 2.263889 3.247312 -0.000000
v 0.176594 0.760201 -0.402085
v 0.215849 1.225014 -0.671261
v 0.572507 1.027478 -0.462305
v 1.384681 1.535558 -0.494933
v 1.667488 1.896176 -0.503525
v 0.699771 1.541787 -0.729693
v 0.264756 1.793730 -0.857101
v 1.802639 2.238549 -0.522150
v 0.858325 2.022981 -0.858083
v 0.289870 2.303275 -0.881836
v 1.819648 2.568756 -0.536603
v 0.939743 2.516176 -0.858083
v 0.294197 2.809092 -0.782351
v 1.712271 3.052015 -0.523090
v 0.984583 3.030102 -0.781461
v 0.273939 3.300518 -0.493307
v 1.445867 3.459577 -0.484395
v 0.888097 3.683261 -0.464217
v -0.176594 0.760201 0.402085
v -0.215849 1.225014 0.671261
v -0.572507 1.027478 0.462305
v -1.384681 1.535558 0.494933
v -1.667488 1.896176 0.503525
v -0.699771 1.541787 0.729693
v -0.264756 1.793730 0.857101
v -1.802639 2.238549 0.522150
v -0.858325 2.022981 0.858083
v -0.289870 2.303275 0.881836
v -1.819648 2.568756 0.536603
v -0.939743 2.516176 0.858083
v -0.294197 2.809092 0.782351
v -1.712271 3.052015 0.523090
v -0.984583 3.030102 0.781461
v -0.273939 3.300518 0.493307
v -1.445867 3.459577 0.484395
v -0.888097 3.683261 0.464217
v -0.236873 3.514691 0.000000
v -1.810702 3.790411 -0.000000
v -0.767928 4.000000 -0.000000
v -0.165289 0.201420 -0.000000
v -0.535856 0.573637 -0.000000
v -1.751402 1.422366 0.000000
v -2.131123 1.850009 -0.000000
v -2.311164 2.256012 -0.000000
v -2.376676 2.647589 -0.000000
v -2.263889 3.247312 -0.000000
v -0.215849 1.225014 -0.671261
v -0.176594 0.760201 -0.402085
v -0.572507 1.027478 -0.462305
v -0.699771 1.541787 -0.729693
v -1.667488 1.896176 -0.503525
v -1.384681 1.535558 -0.494933
v -0.264756 1.793730 -0.857101
v -0.858325 2.022981 -0.858083
v -1.802639 2.238549 -0.522150
v -0.289870 2.303275 -0.881836
v -0.939743 2.516176 -0.858083
v -1.819648 2.568756 -0.536603
v -0.294197 2.809092 -0.782351
v -0.984583 3.030102 -0.781461
v -1.712271 3.052015 -0.523090
v -0.273939 3.300518 -0.493307
v -0.888097 3.683261 -0.464217
v -1.445867 3.459577 -0.484395
vt 0.500000 0.000000
vt 0.500000 0.050000
vt 0.519279 0.050000
vt 0.519279 0.000000
vt 0.562500 0.000000
vt 0.562500 0.050000
vt 0.625000 0.050000
vt 0.625000 0.000000
vt 0.500000 0.100000
vt 0.519279 0.100000
vt 0.562500 0.100000
vt 0.625000 0.100000
vt 0.500000 0.150000
vt 0.519279 0.150000
vt 0.562500 0.150000
vt 0.625000 0.150000
vt 0.500000 0.200000
vt 0.519279 0.200000
vt 0.562500 0.200000
vt 0.625000 0.200000
vt 0.500000 0.250000
vt 0.519279 0.250000
vt 0.562500 0.250000
vt 0.625000 0.250000
vt 0.500000 0.375000
vt 0.519279 0.375000
vt 0.562500 0.375000
vt 0.625000 0.375000
vt 0.500000 0.875000
vt 0.500000 1.000000
vt 0.519279 1.000000
vt 0.519279 0.875000
vt 0.562500 0.875000
vt 0.562500 1.000000
vt 0.625000 1.000000
vt 0.625000 0.875000
vt 0.750000 0.050000
vt 0.750000 0.000000
vt 0.750000 0.100000
vt 0.750000 0.150000
vt 0.750000 0.200000
vt 0.750000 0.250000
vt 0.500000 0.000000
vt 0.519279 0.000000
vt 0.519279 0.050000
vt 0.500000 0.050000
vt 0.562500 0.000000
vt 0.625000 0.000000
vt 0.625000 0.050000
vt 0.562500 0.050000
vt 0.519279 0.100000
vt 0.500000 0.100000
vt 0.625000 0.100000
vt 0.562500 0.100000
vt 0.519279 0.150000
vt 0.500000 0.150000
vt 0.625000 0.150000
vt 0.562500 0.150000
vt 0.519279 0.200000
vt 0.500000 0.200000
vt 0.625000 0.200000
vt 0.562500 0.200000
vt 0.519279 0.250000
vt 0.500000 0.250000
vt 0.625000 0.250000
vt 0.562500 0.250000
vt 0.519279 0.375000
vt 0.500000 0.375000
vt 0.625000 0.375000
vt 0.562500 0.375000
vt 0.500000 0.875000
vt 0.519279 0.875000
vt 0.519279 1.000000
vt 0.500000 1.000000
vt 0.562500 0.875000
vt 0.625000 0.875000
vt 0.625000 1.000000
vt 0.562500 1.000000
vt 0.750000 0.000000
vt 0.750000 0.050000
vt 0.750000 0.100000
vt 0.750000 0.150000
vt 0.750000 0.200000
vt 0.750000 0.250000
vt 0.500000 0.000000
vt 0.519279 0.000000
vt 0.519279 0.050000
vt 0.500000 0.050000
vt 0.562500 0.000000
vt 0.625000 0.000000
vt 0.625000 0.050000
vt 0.562500 0.050000
vt 0.519279 0.100000
vt 0.500000 0.100000
vt 0.625000 0.100000
vt 0.562500 0.100000
vt 0.519279 0.150000
vt 0.500000 0.150000
vt 0.625000 0.150000
vt 0.562500 0.150000
vt 0.519279 0.200000
vt 0.500000 0.200000
vt 0.625000 0.200000
vt 0.562500 0.200000
vt 0.519279 0.250000
vt 0.500000 0.250000
vt 0.625000 0.250000
vt 0.562500 0.250000
vt 0.519279 0.375000
vt 0.500000 0.375000
vt 0.625000 0.375000
vt 0.562500 0.375000
vt 0.500000 0.875000
vt 0.519279 0.875000
vt 0.519279 1.000000
vt 0.500000 1.000000
vt 0.562500 0.875000
vt 0.625000 0.875000
vt 0.625000 1.000000
vt 0.562500 1.000000
vt 0.750000 0.000000
vt 0.750000 0.050000
vt 0.750000 0.100000
vt 0.750000 0.150000
vt 0.750000 0.200000
vt 0.750000 0.250000
vt 0.500000 0.000000
vt 0.500000 0.050000
vt 0.519279 0.050000
vt 0.519279 0.000000
vt 0.562500 0.000000
vt 0.562500 0.050000
vt 0.625000 0.050000
vt 0.625000 0.000000
vt 0.500000 0.100000
vt 0.519279 0.100000
vt 0.562500 0.100000
vt 0.625000 0.100000
vt 0.500000 0.150000
vt 0.519279 0.150000
vt 0.562500 0.150000
vt 0.625000 0.150000
vt 0.500000 0.200000
vt 0.519279 0.200000
vt 0.562500 0.200000
vt 0.625000 0.200000
vt 0.500000 0.250000
vt 0.519279 0.250000
vt 0.562500 0.250000
vt 0.625000 0.250000
vt 0.500000 0.375000
vt 0.519279 0.375000
vt 0.562500 0.375000
vt 0.625000 0.375000
vt 0.500000 0.875000
vt 0.500000 1.000000
vt 0.519279 1.000000
vt 0.519279 0.875000
vt 0.562500 0.875000
vt 0.562500 1.000000
vt 0.625000 1.000000
vt 0.625000 0.875000
vt 0.750000 0.050000
vt 0.750000 0.000000
vt 0.750000 0.100000
vt 0.750000 0.150000
vt 0.750000 0.200000
vt 0.750000 0.250000
vn 0.103707 -0.503725 0.857617
vn 0.161466 -0.501253 0.850103
vn 0.117677 -0.410125 0.904406
vn 0.054730 -0.432828 0.899814
vn 0.244130 -0.466786 0.850007
vn 0.292453 -0.409635 0.864101
vn 0.337390 -0.307833 0.889610
vn 0.232948 -0.358511 0.903994
vn 0.044339 -0.190008 0.980781
vn -0.016721 -0.235046 0.971840
vn 0.348573 -0.140153 0.926744
vn 0.228623 -0.162689 0.959825
vn 0.000734 0.062954 0.998016
vn -0.002374 0.019293 0.999811
vn 0.340505 0.026042 0.939882
vn 0.188662 0.057379 0.980364
vn -0.112608 0.335133 0.935417
vn -0.075784 0.331114 0.940542
vn 0.299114 0.201455 0.932709
vn 0.089966 0.293770 0.951633
vn -0.186946 0.459730 0.868159
vn -0.191781 0.533297 0.823902
vn 0.225740 0.378455 0.897671
vn -0.011521 0.425978 0.904660
vn -0.568796 0.760873 0.312320
vn -0.541272 0.728185 0.420441
vn -0.535891 0.721680 0.438177
vn -0.568796 0.760873 0.312320
vn -0.097875 0.806943 0.582463
vn 0.204575 0.783068 0.587328
vn 0.204575 0.783068 0.587328
vn -0.143144 0.804080 0.577031
vn 0.315788 -0.517957 0.794983
vn 0.378834 -0.557261 0.738881
vn 0.419456 -0.581019 0.697476
vn 0.315788 -0.517957 0.794983
vn 0.449591 -0.650353 0.612298
vn 0.452622 -0.690016 0.564811
vn 0.452622 -0.690016 0.564811
vn 0.451670 -0.675183 0.583201
vn 0.613109 -0.521780 0.593164
vn 0.613109 -0.521780 0.593164
vn 0.659869 -0.400802 0.635556
vn 0.646291 -0.440201 0.623322
vn 0.701703 -0.186881 0.687524
vn 0.699498 -0.211546 0.682607
vn 0.684213 0.059530 0.726849
vn 0.686098 0.049793 0.725803
vn 0.613057 0.287559 0.735847
vn 0.609420 0.296122 0.735472
vn 0.539503 0.437648 0.719305
vn 0.539503 0.437648 0.719305
vn 0.103706 -0.503725 -0.857617
vn 0.054730 -0.432828 -0.899814
vn 0.117677 -0.410125 -0.904406
vn 0.161466 -0.501253 -0.850103
vn 0.244130 -0.466786 -0.850007
vn 0.232948 -0.358510 -0.903994
vn 0.337390 -0.307833 -0.889610
vn 0.292453 -0.409635 -0.864101
vn -0.016721 -0.235046 -0.971840
vn 0.044339 -0.190008 -0.980781
vn 0.228623 -0.162689 -0.959825
vn 0.348573 -0.140153 -0.926744
vn -0.002374 0.019293 -0.999811
vn 0.000734 0.062954 -0.998016
vn 0.188662 0.057379 -0.980364
vn 0.340505 0.026042 -0.939882
vn -0.075784 0.331114 -0.940543
vn -0.112608 0.335133 -0.935417
vn 0.089966 0.293770 -0.951633
vn 0.299114 0.201455 -0.932709
vn -0.191781 0.533297 -0.823902
vn -0.186946 0.459730 -0.868159
vn -0.011521 0.425978 -0.904660
vn 0.225740 0.378455 -0.897671
vn -0.568796 0.760873 -0.312320
vn -0.568796 0.760873 -0.312320
vn -0.535891 0.721680 -0.438177
vn -0.541272 0.728185 -0.420441
vn -0.097875 0.806943 -0.582463
vn -0.143144 0.804080 -0.577031
vn 0.204575 0.783068 -0.587328
vn 0.204575 0.783068 -0.587328
vn 0.315788 -0.517957 -0.794983
vn 0.315788 -0.517957 -0.794983
vn 0.419457 -0.581019 -0.697476
vn 0.378834 -0.557261 -0.738881
vn 0.449590 -0.650353 -0.612298
vn 0.451669 -0.675183 -0.583201
vn 0.452622 -0.690015 -0.564812
vn 0.452622 -0.690015 -0.564812
vn 0.613109 -0.521780 -0.593164
vn 0.646291 -0.440201 -0.623322
vn 0.659869 -0.400802 -0.635556
vn 0.613109 -0.521780 -0.593164
vn 0.699498 -0.211545 -0.682607
vn 0.701703 -0.186881 -0.687524
vn 0.686098 0.049793 -0.725803
vn 0.684213 0.059530 -0.726849
vn 0.609420 0.296122 -0.735472
vn 0.613057 0.287559 -0.735847
vn 0.539503 0.437648 -0.719305
vn 0.539503 0.437648 -0.719305
vn -0.103706 -0.503725 0.857617
vn -0.054730 -0.432828 0.899814
vn -0.117677 -0.410125 0.904406
vn -0.161466 -0.501253 0.850103
vn -0.244130 -0.466786 0.850007
vn -0.232948 -0.358511 0.903994
vn -0.337390 -0.307833 0.889610
vn -0.292453 -0.409635 0.864101
vn 0.016721 -0.235046 0.971840
vn -0.044339 -0.190008 0.980781
vn -0.228623 -0.162689 0.959825
vn -0.348573 -0.140153 0.926744
vn 0.002374 0.019293 0.999811
vn -0.000734 0.062954 0.998016
vn -0.188662 0.057379 0.980364
vn -0.340505 0.026042 0.939882
vn 0.075784 0.331114 0.940543
vn 0.112608 0.335133 0.935417
vn -0.089966 0.293770 0.951633
vn -0.299114 0.201455 0.932709
vn 0.191781 0.533297 0.823902
vn 0.186946 0.459730 0.868159
vn 0.011521 0.425979 0.904660
vn -0.225740 0.378455 0.897671
vn 0.568796 0.760873 0.312320
vn 0.568796 0.760873 0.312320
vn 0.535891 0.721680 0.438177
vn 0.541272 0.728185 0.420442
vn 0.097875 0.806943 0.582463
vn 0.143144 0.804080 0.577032
vn -0.204575 0.783068 0.587328
vn -0.204575 0.783068 0.587328
vn -0.315788 -0.517957 0.794983
vn -0.315788 -0.517957 0.794983
vn -0.419457 -0.581019 0.697476
vn -0.378834 -0.557261 0.738881
vn -0.449590 -0.650353 0.612298
vn -0.451669 -0.675183 0.583201
vn -0.452622 -0.690015 0.564812
vn -0.452622 -0.690015 0.564812
vn -0.613109 -0.521780 0.593164
vn -0.646291 -0.440201 0.623322
vn -0.659869 -0.400802 0.635556
vn -0.613109 -0.521780 0.593164
vn -0.699498 -0.211545 0.682607
vn -0.701703 -0.186881 0.687524
vn -0.686098 0.049793 0.725803
vn -0.684213 0.059530 0.726849
vn -0.609420 0.296122 0.735472
vn -0.613057 0.287559 0.735847
vn -0.539503 0.437648 0.719305
vn -0.539503 0.437648 0.719305
vn -0.103707 -0.503725 -0.857617
vn -0.161466 -0.501253 -0.850103
vn -0.117677 -0.410125 -0.904406
vn -0.054730 -0.432828 -0.899814
vn -0.244130 -0.466786 -0.850007
vn -0.292453 -0.409635 -0.864101
vn -0.337390 -0.307833 -0.889610
vn -0.232948 -0.358511 -0.903994
vn -0.044339 -0.190008 -0.980781
vn 0.016721 -0.235046 -0.971840
vn -0.348573 -0.140153 -0.926744
vn -0.228623 -0.162689 -0.959825
vn -0.000734 0.062954 -0.998016
vn 0.002374 0.019293 -0.999811
vn -0.340505 0.026042 -0.939882
vn -0.188662 0.057379 -0.980364
vn 0.112608 0.335133 -0.935417
vn 0.075784 0.331114 -0.940542
vn -0.299114 0.201455 -0.932709
vn -0.089966 0.293770 -0.951633
vn 0.186946 0.459730 -0.868159
vn 0.191781 0.533297 -0.823902
vn -0.225740 0.378455 -0.897671
vn 0.011521 0.425978 -0.904660
vn 0.568796 0.760873 -0.312320
vn 0.541272 0.728185 -0.420442
vn 0.535891 0.721680 -0.438177
vn 0.568796 0.760873 -0.312320
vn 0.097875 0.806943 -0.582463
vn -0.204575 0.783068 -0.587328
vn -0.204575 0.783068 -0.587328
vn 0.143144 0.804080 -0.577032
vn -0.315788 -0.517957 -0.794983
vn -0.378834 -0.557261 -0.738881
vn -0.419456 -0.581019 -0.697476
vn -0.315788 -0.517957 -0.794983
vn -0.449591 -0.650353 -0.612298
vn -0.452622 -0.690016 -0.564811
vn -0.452622 -0.690016 -0.564811
vn -0.451669 -0.675183 -0.583201
vn -0.613109 -0.521780 -0.593164
vn -0.613109 -0.521780 -0.593164
vn -0.659869 -0.400802 -0.635556
vn -0.646291 -0.440201 -0.623322
vn -0.701703 -0.186881 -0.687524
vn -0.699498 -0.211546 -0.682607
vn -0.684213 0.059530 -0.726849
vn -0.686098 0.049793 -0.725803
vn -0.613057 0.287559 -0.735847
vn -0.609420 0.296122 -0.735472
vn -0.539503 0.437648 -0.719305
vn -0.539503 0.437648 -0.719305
s 1
g Heart
usemtl blinn1SG
f 1/1/1 16/4/2 15/3/3 2/2/4
f 17/5/5 20/8/6 19/7/7 18/6/8
f 2/2/4 15/3/3 21/10/9 3/9/10
f 18/6/8 19/7/7 23/12/11 22/11/12
f 3/9/10 21/10/9 24/14/13 4/13/14
f 22/11/12 23/12/11 26/16/15 25/15/16
f 4/13/14 24/14/13 27/18/17 5/17/18
f 25/15/16 26/16/15 29/20/19 28/19/20
f 5/17/18 27/18/17 30/22/21 6/21/22
f 28/19/20 29/20/19 32/24/23 31/23/24
s 3
f 6/21/25 30/22/26 33/26/27 7/25/28
f 31/23/29 32/24/30 35/28/31 34/27/32
s 4
f 8/29/33 36/32/34 16/31/35 1/30/36
f 37/33/37 38/36/38 20/35/39 17/34/40
s 5
f 20/8/41 38/38/42 39/37/43 19/7/44
f 19/7/44 39/37/43 40/39/45 23/12/46
f 23/12/46 40/39/45 41/40/47 26/16/48
f 26/16/48 41/40/47 42/41/49 29/20/50
f 29/20/50 42/41/49 35/42/51 32/24/52
s 6
f 9/43/53 10/46/54 44/45/55 43/44/56
f 45/47/57 48/50/58 47/49/59 46/48/60
f 10/46/54 11/52/61 49/51/62 44/45/55
f 48/50/58 51/54/63 50/53/64 47/49/59
f 11/52/61 12/56/65 52/55/66 49/51/62
f 51/54/63 54/58/67 53/57/68 50/53/64
f 12/56/65 13/60/69 55/59/70 52/55/66
f 54/58/67 57/62/71 56/61/72 53/57/68
f 13/60/69 14/64/73 58/63/74 55/59/70
f 57/62/71 60/66/75 59/65/76 56/61/72
s 7
f 14/64/77 7/68/78 33/67/79 58/63/80
f 60/66/81 34/70/82 35/69/83 59/65/84
s 8
f 8/71/85 9/74/86 43/73/87 36/72/88
f 37/75/89 45/78/90 46/77/91 38/76/92
s 9
f 46/48/93 47/49/94 39/80/95 38/79/96
f 47/49/94 50/53/97 40/81/98 39/80/95
f 50/53/97 53/57/99 41/82/100 40/81/98
f 53/57/99 56/61/101 42/83/102 41/82/100
f 56/61/101 59/65/103 35/84/104 42/83/102
s 7
f 58/63/80 33/67/79 34/70/82 60/66/81
s 3
f 30/22/26 31/23/29 34/27/32 33/26/27
s 1
f 27/18/17 28/19/20 31/23/24 30/22/21
f 24/14/13 25/15/16 28/19/20 27/18/17
f 21/10/9 22/11/12 25/15/16 24/14/13
f 15/3/3 18/6/8 22/11/12 21/10/9
f 16/4/2 17/5/5 18/6/8 15/3/3
s 4
f 36/32/34 37/33/37 17/34/40 16/31/35
s 8
f 43/73/87 45/78/90 37/75/89 36/72/88
s 6
f 44/45/55 48/50/58 45/47/57 43/44/56
f 49/51/62 51/54/63 48/50/58 44/45/55
f 52/55/66 54/58/67 51/54/63 49/51/62
f 55/59/70 57/62/71 54/58/67 52/55/66
f 58/63/74 60/66/75 57/62/71 55/59/70
s 10
f 1/85/105 2/88/106 62/87/107 61/86/108
f 63/89/109 66/92/110 65/91/111 64/90/112
f 2/88/106 3/94/113 67/93/114 62/87/107
f 66/92/110 69/96/115 68/95/116 65/91/111
f 3/94/113 4/98/117 70/97/118 67/93/114
f 69/96/115 72/100/119 71/99/120 68/95/116
f 4/98/117 5/102/121 73/101/122 70/97/118
f 72/100/119 75/104/123 74/103/124 71/99/120
f 5/102/121 6/106/125 76/105/126 73/101/122
f 75/104/123 78/108/127 77/107/128 74/103/124
s 11
f 6/106/129 7/110/130 79/109/131 76/105/132
f 78/108/133 81/112/134 80/111/135 77/107/136
s 12
f 8/113/137 1/116/138 61/115/139 82/114/140
f 83/117/141 63/120/142 64/119/143 84/118/144
s 13
f 64/90/145 65/91/146 85/122/147 84/121/148
f 65/91/146 68/95/149 86/123/150 85/122/147
f 68/95/149 71/99/151 87/124/152 86/123/150
f 71/99/151 74/103/153 88/125/154 87/124/152
f 74/103/153 77/107/155 80/126/156 88/125/154
s 14
f 9/127/157 90/130/158 89/129/159 10/128/160
f 91/131/161 94/134/162 93/133/163 92/132/164
f 10/128/160 89/129/159 95/136/165 11/135/166
f 92/132/164 93/133/163 97/138/167 96/137/168
f 11/135/166 95/136/165 98/140/169 12/139/170
f 96/137/168 97/138/167 100/142/171 99/141/172
f 12/139/170 98/140/169 101/144/173 13/143/174
f 99/141/172 100/142/171 103/146/175 102/145/176
f 13/143/174 101/144/173 104/148/177 14/147/178
f 102/145/176 103/146/175 106/150/179 105/149/180
s 16
f 14/147/181 104/148/182 79/152/183 7/151/184
f 105/149/185 106/150/186 80/154/187 81/153/188
s 17
f 8/155/189 82/158/190 90/157/191 9/156/192
f 83/159/193 84/162/194 94/161/195 91/160/196
s 18
f 94/134/197 84/164/198 85/163/199 93/133/200
f 93/133/200 85/163/199 86/165/201 97/138/202
f 97/138/202 86/165/201 87/166/203 100/142/204
f 100/142/204 87/166/203 88/167/205 103/146/206
f 103/146/206 88/167/205 80/168/207 106/150/208
s 16
f 104/148/182 105/149/185 81/153/188 79/152/183
s 11
f 76/105/132 79/109/131 81/112/134 78/108/133
s 10
f 73/101/122 76/105/126 78/108/127 75/104/123
f 70/97/118 73/101/122 75/104/123 72/100/119
f 67/93/114 70/97/118 72/100/119 69/96/115
f 62/87/107 67/93/114 69/96/115 66/92/110
f 61/86/108 62/87/107 66/92/110 63/89/109
s 12
f 82/114/140 61/115/139 63/120/142 83/117/141
s 17
f 90/157/191 82/158/190 83/159/193 91/160/196
s 14
f 89/129/159 90/130/158 91/131/161 92/132/164
f 95/136/165 89/129/159 92/132/164 96/137/168
f 98/140/169 95/136/165 96/137/168 99/141/172
f 101/144/173 98/140/169 99/141/172 102/145/176
f 104/148/177 101/144/173 102/145/176 105/149/180
